<svg xmlns="http://www.w3.org/2000/svg" viewBox="0 0 390 844" width="390" height="844">
<defs>
<linearGradient id="lg" x1="0%" y1="0%" x2="100%" y2="0%">
  <stop offset="0%" style="stop-color:#00d4ff"/>
  <stop offset="50%" style="stop-color:#a855f7"/>
  <stop offset="100%" style="stop-color:#f472b6"/>
</linearGradient>
<linearGradient id="logoGrad" x1="0%" y1="0%" x2="100%" y2="100%">
  <stop offset="0%" style="stop-color:#00d4ff"/>
  <stop offset="100%" style="stop-color:#a855f7"/>
</linearGradient>
</defs>
<rect width="390" height="844" fill="#0a0a0f"/>
<rect width="390" height="56" fill="#0a0e1a"/>
<rect y="56" width="390" height="1" fill="#00d4ff" opacity="0.3"/>
<text x="20" y="36" font-family="monospace" font-size="20" font-weight="bold" fill="#00d4ff">LIRA</text>
<rect x="348" y="18" width="22" height="3" rx="1.5" fill="#9ca3af"/>
<rect x="348" y="26" width="22" height="3" rx="1.5" fill="#9ca3af"/>
<rect x="348" y="34" width="22" height="3" rx="1.5" fill="#9ca3af"/>
<text x="195" y="112" font-family="monospace" font-size="22" font-weight="bold" fill="#00d4ff" text-anchor="middle">Quantum-Powered</text>
<text x="195" y="140" font-family="monospace" font-size="22" font-weight="bold" fill="#a855f7" text-anchor="middle">Token Launches</text>
<text x="195" y="170" font-family="monospace" font-size="12" fill="#9ca3af" text-anchor="middle">Launch tokens on BASE with AI agents</text>
<rect x="95" y="190" width="200" height="44" rx="8" fill="#00d4ff"/>
<text x="195" y="217" font-family="monospace" font-size="14" font-weight="bold" fill="#0a0a0f" text-anchor="middle">Launch Your Token</text>
<rect x="12" y="252" width="112" height="68" rx="8" fill="#0a0e1a" stroke="#00d4ff" stroke-width="0.8" stroke-opacity="0.3"/>
<text x="68" y="288" font-family="monospace" font-size="20" font-weight="bold" fill="#00d4ff" text-anchor="middle">12</text>
<text x="68" y="308" font-family="monospace" font-size="11" fill="#9ca3af" text-anchor="middle">Tokens</text>
<rect x="138" y="252" width="112" height="68" rx="8" fill="#0a0e1a" stroke="#00d4ff" stroke-width="0.8" stroke-opacity="0.3"/>
<text x="194" y="288" font-family="monospace" font-size="20" font-weight="bold" fill="#00d4ff" text-anchor="middle">5</text>
<text x="194" y="308" font-family="monospace" font-size="11" fill="#9ca3af" text-anchor="middle">Agents</text>
<rect x="264" y="252" width="112" height="68" rx="8" fill="#0a0e1a" stroke="#00d4ff" stroke-width="0.8" stroke-opacity="0.3"/>
<text x="320" y="288" font-family="monospace" font-size="20" font-weight="bold" fill="#00d4ff" text-anchor="middle">$4.2K</text>
<text x="320" y="308" font-family="monospace" font-size="11" fill="#9ca3af" text-anchor="middle">Earnings</text>
<rect x="12" y="338" width="366" height="68" rx="8" fill="#0a0e1a" stroke="#00d4ff" stroke-width="0.8" stroke-opacity="0.25"/>
<text x="28" y="366" font-family="monospace" font-size="14" font-weight="bold" fill="#00d4ff">Token Launch</text>
<text x="28" y="386" font-family="monospace" font-size="12" fill="#9ca3af">ERC-20 + Auto Liquidity</text>
<rect x="12" y="418" width="366" height="68" rx="8" fill="#0a0e1a" stroke="#00d4ff" stroke-width="0.8" stroke-opacity="0.25"/>
<text x="28" y="446" font-family="monospace" font-size="14" font-weight="bold" fill="#00d4ff">Quantum Oracle</text>
<text x="28" y="466" font-family="monospace" font-size="12" fill="#9ca3af">Q# Market Intelligence</text>
<rect x="12" y="498" width="366" height="68" rx="8" fill="#0a0e1a" stroke="#00d4ff" stroke-width="0.8" stroke-opacity="0.25"/>
<text x="28" y="526" font-family="monospace" font-size="14" font-weight="bold" fill="#00d4ff">AI Agents</text>
<text x="28" y="546" font-family="monospace" font-size="12" fill="#9ca3af">Parallel Execution</text>
<rect x="12" y="578" width="366" height="68" rx="8" fill="#0a0e1a" stroke="#00d4ff" stroke-width="0.8" stroke-opacity="0.25"/>
<text x="28" y="606" font-family="monospace" font-size="14" font-weight="bold" fill="#00d4ff">Smart Wallets</text>
<text x="28" y="626" font-family="monospace" font-size="12" fill="#9ca3af">Gasless Transactions</text>
<rect y="784" width="390" height="60" fill="#0a0e1a"/>
<rect y="784" width="390" height="1" fill="#00d4ff" opacity="0.2"/>
<text x="32" y="814" font-size="16" text-anchor="middle">&#x1F3E0;</text>
<text x="32" y="834" font-family="monospace" font-size="9" fill="#9ca3af" text-anchor="middle">Home</text>
<text x="112" y="814" font-size="16" text-anchor="middle">&#x1F4CA;</text>
<text x="112" y="834" font-family="monospace" font-size="9" fill="#9ca3af" text-anchor="middle">Dashboard</text>
<text x="192" y="814" font-size="16" text-anchor="middle">&#x26A1;</text>
<text x="192" y="834" font-family="monospace" font-size="9" fill="#9ca3af" text-anchor="middle">Launch</text>
<text x="272" y="814" font-size="16" text-anchor="middle">&#x1F916;</text>
<text x="272" y="834" font-family="monospace" font-size="9" fill="#9ca3af" text-anchor="middle">Agents</text>
<text x="352" y="814" font-size="16" text-anchor="middle">&#x1F464;</text>
<text x="352" y="834" font-family="monospace" font-size="9" fill="#9ca3af" text-anchor="middle">Profile</text>
</svg>