<svg xmlns="http://www.w3.org/2000/svg" width="1280" height="800" viewBox="0 0 1280 800">
  <defs>
    <linearGradient id="logoBg" x1="0%" y1="0%" x2="100%" y2="100%">
      <stop offset="0%" style="stop-color:#00d4ff;stop-opacity:1" />
      <stop offset="100%" style="stop-color:#9d4edd;stop-opacity:1" />
    </linearGradient>
    <linearGradient id="greenGrad" x1="0%" y1="0%" x2="100%" y2="0%">
      <stop offset="0%" style="stop-color:#06ffa5;stop-opacity:0.15" />
      <stop offset="100%" style="stop-color:#06ffa5;stop-opacity:0.05" />
    </linearGradient>
    <linearGradient id="blueGrad" x1="0%" y1="0%" x2="100%" y2="0%">
      <stop offset="0%" style="stop-color:#00d4ff;stop-opacity:0.15" />
      <stop offset="100%" style="stop-color:#00d4ff;stop-opacity:0.05" />
    </linearGradient>
    <linearGradient id="purpleGrad" x1="0%" y1="0%" x2="100%" y2="0%">
      <stop offset="0%" style="stop-color:#9d4edd;stop-opacity:0.15" />
      <stop offset="100%" style="stop-color:#9d4edd;stop-opacity:0.05" />
    </linearGradient>
    <linearGradient id="chartFill" x1="0%" y1="0%" x2="0%" y2="100%">
      <stop offset="0%" style="stop-color:#00d4ff;stop-opacity:0.4" />
      <stop offset="100%" style="stop-color:#00d4ff;stop-opacity:0" />
    </linearGradient>
  </defs>

  <!-- Background -->
  <rect width="1280" height="800" fill="#050810"/>

  <!-- Sidebar -->
  <rect x="0" y="0" width="256" height="800" fill="#0a0e1a"/>
  <line x1="256" y1="0" x2="256" y2="800" stroke="#00d4ff" stroke-width="1" opacity="0.3"/>

  <!-- Logo area -->
  <rect x="0" y="0" width="256" height="80" fill="#0a0e1a"/>
  <line x1="0" y1="80" x2="256" y2="80" stroke="#00d4ff" stroke-width="1" opacity="0.2"/>
  <rect x="24" y="22" width="40" height="40" rx="10" fill="url(#logoBg)"/>
  <text x="44" y="48" font-family="Arial, sans-serif" font-size="20" font-weight="bold" fill="#050810" text-anchor="middle">L</text>
  <text x="76" y="48" font-family="Arial, sans-serif" font-size="22" font-weight="bold" fill="#00d4ff">LIRA</text>

  <!-- Sidebar nav items -->
  <!-- Home -->
  <rect x="12" y="96" width="232" height="44" rx="8" fill="none"/>
  <text x="48" y="123" font-family="Arial, sans-serif" font-size="14" fill="#6b7280">⌂</text>
  <text x="72" y="123" font-family="Arial, sans-serif" font-size="14" fill="#6b7280">Home</text>

  <!-- Dashboard (active) -->
  <rect x="12" y="148" width="232" height="44" rx="8" fill="#00d4ff" opacity="0.15"/>
  <text x="48" y="175" font-family="Arial, sans-serif" font-size="14" fill="#00d4ff">📊</text>
  <text x="72" y="175" font-family="Arial, sans-serif" font-size="14" font-weight="bold" fill="#00d4ff">Dashboard</text>

  <!-- Launch Token -->
  <rect x="12" y="200" width="232" height="44" rx="8" fill="none"/>
  <text x="48" y="227" font-family="Arial, sans-serif" font-size="14" fill="#6b7280">⚡</text>
  <text x="72" y="227" font-family="Arial, sans-serif" font-size="14" fill="#6b7280">Launch Token</text>

  <!-- Agents -->
  <rect x="12" y="252" width="232" height="44" rx="8" fill="none"/>
  <text x="48" y="279" font-family="Arial, sans-serif" font-size="14" fill="#6b7280">🤖</text>
  <text x="72" y="279" font-family="Arial, sans-serif" font-size="14" fill="#6b7280">Agents</text>

  <!-- Profile -->
  <rect x="12" y="304" width="232" height="44" rx="8" fill="none"/>
  <text x="48" y="331" font-family="Arial, sans-serif" font-size="14" fill="#6b7280">👤</text>
  <text x="72" y="331" font-family="Arial, sans-serif" font-size="14" fill="#6b7280">Profile</text>

  <!-- Sidebar footer -->
  <line x1="0" y1="756" x2="256" y2="756" stroke="#00d4ff" stroke-width="1" opacity="0.2"/>
  <text x="128" y="780" font-family="Arial, sans-serif" font-size="11" fill="#4b5563" text-anchor="middle">Role: </text>
  <text x="160" y="780" font-family="Arial, sans-serif" font-size="11" fill="#00d4ff">User</text>
  <text x="128" y="796" font-family="Arial, sans-serif" font-size="10" fill="#374151" text-anchor="middle">© 2026 Lira Protocol</text>

  <!-- Top Bar -->
  <rect x="256" y="0" width="1024" height="64" fill="#0a0e1a" opacity="0.9"/>
  <line x1="256" y1="64" x2="1280" y2="64" stroke="#00d4ff" stroke-width="1" opacity="0.3"/>

  <!-- Search -->
  <rect x="280" y="16" width="260" height="32" rx="8" fill="#050810" stroke="#00d4ff" stroke-width="1" opacity="0.4"/>
  <text x="300" y="36" font-family="Arial, sans-serif" font-size="13" fill="#4b5563">🔍  Search...</text>

  <!-- Connect button -->
  <rect x="1100" y="16" width="156" height="32" rx="16" fill="#00d4ff" opacity="0.12" stroke="#00d4ff" stroke-width="1.5" opacity="0.5"/>
  <text x="1178" y="36" font-family="Arial, sans-serif" font-size="12" fill="#00d4ff" text-anchor="middle">0x742d...e5e5</text>

  <!-- Main Content Area -->
  <!-- Page Title -->
  <text x="288" y="108" font-family="Arial, sans-serif" font-size="28" font-weight="bold" fill="#00d4ff">Dashboard</text>
  <text x="288" y="132" font-family="Arial, sans-serif" font-size="14" fill="#6b7280">Welcome back to Lira Protocol</text>

  <!-- Stats Cards -->
  <!-- Tokens card -->
  <rect x="288" y="154" width="290" height="110" rx="12" fill="#0a0e1a" stroke="#00d4ff" stroke-width="1" opacity="0.8"/>
  <rect x="288" y="154" width="290" height="110" rx="12" fill="url(#blueGrad)"/>
  <text x="320" y="200" font-family="Arial, sans-serif" font-size="38" font-weight="bold" fill="white">12</text>
  <text x="320" y="230" font-family="Arial, sans-serif" font-size="13" fill="#9ca3af">My Tokens</text>
  <text x="540" y="190" font-family="Arial, sans-serif" font-size="32" fill="#00d4ff" opacity="0.3">🪙</text>

  <!-- Agents card -->
  <rect x="598" y="154" width="290" height="110" rx="12" fill="#0a0e1a" stroke="#9d4edd" stroke-width="1" opacity="0.8"/>
  <rect x="598" y="154" width="290" height="110" rx="12" fill="url(#purpleGrad)"/>
  <text x="630" y="200" font-family="Arial, sans-serif" font-size="38" font-weight="bold" fill="white">5</text>
  <text x="630" y="230" font-family="Arial, sans-serif" font-size="13" fill="#9ca3af">Active Agents</text>
  <text x="848" y="190" font-family="Arial, sans-serif" font-size="32" fill="#9d4edd" opacity="0.3">🤖</text>

  <!-- Earnings card -->
  <rect x="908" y="154" width="340" height="110" rx="12" fill="#0a0e1a" stroke="#06ffa5" stroke-width="1" opacity="0.8"/>
  <rect x="908" y="154" width="340" height="110" rx="12" fill="url(#greenGrad)"/>
  <text x="940" y="200" font-family="Arial, sans-serif" font-size="38" font-weight="bold" fill="white">$4,231</text>
  <text x="940" y="230" font-family="Arial, sans-serif" font-size="13" fill="#9ca3af">Total Earnings</text>
  <text x="1200" y="190" font-family="Arial, sans-serif" font-size="32" fill="#06ffa5" opacity="0.3">💰</text>

  <!-- Portfolio Chart -->
  <rect x="288" y="284" width="590" height="240" rx="12" fill="#0a0e1a" stroke="#00d4ff" stroke-width="1" opacity="0.4"/>
  <text x="316" y="316" font-family="Arial, sans-serif" font-size="16" font-weight="bold" fill="#00d4ff">Portfolio Performance</text>
  <text x="316" y="336" font-family="Arial, sans-serif" font-size="11" fill="#4b5563">Last 7 days</text>

  <!-- Chart axes -->
  <line x1="330" y1="490" x2="860" y2="490" stroke="#1f2937" stroke-width="1"/>
  <line x1="330" y1="360" x2="330" y2="490" stroke="#1f2937" stroke-width="1"/>

  <!-- Chart area fill -->
  <polygon points="330,460 400,430 470,445 540,400 610,370 680,385 750,350 820,360 860,355 860,490 330,490" fill="url(#chartFill)"/>
  <!-- Chart line -->
  <polyline points="330,460 400,430 470,445 540,400 610,370 680,385 750,350 820,360 860,355" fill="none" stroke="#00d4ff" stroke-width="2.5"/>
  <!-- Data points -->
  <circle cx="330" cy="460" r="4" fill="#00d4ff"/>
  <circle cx="400" cy="430" r="4" fill="#00d4ff"/>
  <circle cx="470" cy="445" r="4" fill="#00d4ff"/>
  <circle cx="540" cy="400" r="4" fill="#00d4ff"/>
  <circle cx="610" cy="370" r="4" fill="#00d4ff"/>
  <circle cx="680" cy="385" r="4" fill="#00d4ff"/>
  <circle cx="750" cy="350" r="4" fill="#00d4ff"/>
  <circle cx="820" cy="360" r="4" fill="#00d4ff"/>
  <circle cx="860" cy="355" r="5" fill="#00d4ff" stroke="white" stroke-width="2"/>

  <!-- X-axis labels -->
  <text x="330" y="508" font-family="Arial, sans-serif" font-size="10" fill="#4b5563" text-anchor="middle">Mon</text>
  <text x="400" y="508" font-family="Arial, sans-serif" font-size="10" fill="#4b5563" text-anchor="middle">Tue</text>
  <text x="470" y="508" font-family="Arial, sans-serif" font-size="10" fill="#4b5563" text-anchor="middle">Wed</text>
  <text x="540" y="508" font-family="Arial, sans-serif" font-size="10" fill="#4b5563" text-anchor="middle">Thu</text>
  <text x="610" y="508" font-family="Arial, sans-serif" font-size="10" fill="#4b5563" text-anchor="middle">Fri</text>
  <text x="680" y="508" font-family="Arial, sans-serif" font-size="10" fill="#4b5563" text-anchor="middle">Sat</text>
  <text x="750" y="508" font-family="Arial, sans-serif" font-size="10" fill="#4b5563" text-anchor="middle">Sun</text>

  <!-- My Tokens list -->
  <rect x="898" y="284" width="350" height="240" rx="12" fill="#0a0e1a" stroke="#00d4ff" stroke-width="1" opacity="0.4"/>
  <text x="926" y="316" font-family="Arial, sans-serif" font-size="16" font-weight="bold" fill="#00d4ff">My Tokens</text>

  <!-- Token rows -->
  <rect x="914" y="328" width="318" height="42" rx="6" fill="#050810"/>
  <rect x="920" y="336" width="26" height="26" rx="13" fill="#9d4edd" opacity="0.6"/>
  <text x="933" y="353" font-family="Arial, sans-serif" font-size="11" fill="white" text-anchor="middle">Q</text>
  <text x="958" y="347" font-family="Arial, sans-serif" font-size="13" font-weight="bold" fill="white">QUANTUM</text>
  <text x="958" y="362" font-family="Arial, sans-serif" font-size="11" fill="#6b7280">450 tokens</text>
  <text x="1218" y="351" font-family="Arial, sans-serif" font-size="13" fill="#06ffa5" text-anchor="end">+12.4%</text>

  <rect x="914" y="378" width="318" height="42" rx="6" fill="#050810"/>
  <rect x="920" y="386" width="26" height="26" rx="13" fill="#00d4ff" opacity="0.6"/>
  <text x="933" y="403" font-family="Arial, sans-serif" font-size="11" fill="white" text-anchor="middle">L</text>
  <text x="958" y="397" font-family="Arial, sans-serif" font-size="13" font-weight="bold" fill="white">LIRA</text>
  <text x="958" y="412" font-family="Arial, sans-serif" font-size="11" fill="#6b7280">1,200 tokens</text>
  <text x="1218" y="401" font-family="Arial, sans-serif" font-size="13" fill="#06ffa5" text-anchor="end">+8.1%</text>

  <rect x="914" y="428" width="318" height="42" rx="6" fill="#050810"/>
  <rect x="920" y="436" width="26" height="26" rx="13" fill="#ff006e" opacity="0.6"/>
  <text x="933" y="453" font-family="Arial, sans-serif" font-size="11" fill="white" text-anchor="middle">N</text>
  <text x="958" y="447" font-family="Arial, sans-serif" font-size="13" font-weight="bold" fill="white">NOVA</text>
  <text x="958" y="462" font-family="Arial, sans-serif" font-size="11" fill="#6b7280">780 tokens</text>
  <text x="1218" y="451" font-family="Arial, sans-serif" font-size="13" fill="#ff006e" text-anchor="end">-2.3%</text>

  <rect x="914" y="478" width="318" height="36" rx="6" fill="none"/>
  <text x="1073" y="501" font-family="Arial, sans-serif" font-size="12" fill="#00d4ff" text-anchor="middle">View all tokens →</text>

  <!-- Agent Activity -->
  <rect x="288" y="542" width="590" height="230" rx="12" fill="#0a0e1a" stroke="#9d4edd" stroke-width="1" opacity="0.4"/>
  <text x="316" y="572" font-family="Arial, sans-serif" font-size="16" font-weight="bold" fill="#9d4edd">Agent Activity</text>

  <!-- Agent rows -->
  <rect x="304" y="586" width="558" height="38" rx="6" fill="#050810"/>
  <rect x="312" y="594" width="22" height="22" rx="11" fill="#06ffa5" opacity="0.3"/>
  <circle cx="323" cy="605" r="5" fill="#06ffa5"/>
  <text x="346" y="609" font-family="Arial, sans-serif" font-size="13" fill="white">Market Analysis Agent</text>
  <rect x="780" y="597" width="68" height="18" rx="4" fill="#06ffa5" opacity="0.15"/>
  <text x="814" y="611" font-family="Arial, sans-serif" font-size="10" fill="#06ffa5" text-anchor="middle">RUNNING</text>

  <rect x="304" y="632" width="558" height="38" rx="6" fill="#050810"/>
  <rect x="312" y="640" width="22" height="22" rx="11" fill="#00d4ff" opacity="0.3"/>
  <circle cx="323" cy="651" r="5" fill="#00d4ff"/>
  <text x="346" y="655" font-family="Arial, sans-serif" font-size="13" fill="white">Liquidity Optimizer</text>
  <rect x="780" y="643" width="68" height="18" rx="4" fill="#00d4ff" opacity="0.15"/>
  <text x="814" y="657" font-family="Arial, sans-serif" font-size="10" fill="#00d4ff" text-anchor="middle">RUNNING</text>

  <rect x="304" y="678" width="558" height="38" rx="6" fill="#050810"/>
  <rect x="312" y="686" width="22" height="22" rx="11" fill="#9d4edd" opacity="0.3"/>
  <circle cx="323" cy="697" r="5" fill="#9d4edd"/>
  <text x="346" y="701" font-family="Arial, sans-serif" font-size="13" fill="white">Quantum Price Predictor</text>
  <rect x="780" y="689" width="68" height="18" rx="4" fill="#9d4edd" opacity="0.15"/>
  <text x="814" y="703" font-family="Arial, sans-serif" font-size="10" fill="#9d4edd" text-anchor="middle">WAITING</text>

  <rect x="304" y="724" width="558" height="38" rx="6" fill="#050810"/>
  <rect x="312" y="732" width="22" height="22" rx="11" fill="#ff006e" opacity="0.3"/>
  <circle cx="323" cy="743" r="5" fill="#ff006e"/>
  <text x="346" y="747" font-family="Arial, sans-serif" font-size="13" fill="white">Risk Assessment Bot</text>
  <rect x="780" y="735" width="68" height="18" rx="4" fill="#4b5563" opacity="0.5"/>
  <text x="814" y="749" font-family="Arial, sans-serif" font-size="10" fill="#9ca3af" text-anchor="middle">PAUSED</text>

  <!-- Earnings breakdown -->
  <rect x="898" y="542" width="350" height="230" rx="12" fill="#0a0e1a" stroke="#06ffa5" stroke-width="1" opacity="0.4"/>
  <text x="926" y="572" font-family="Arial, sans-serif" font-size="16" font-weight="bold" fill="#06ffa5">Earnings Breakdown</text>

  <!-- Earning rows -->
  <text x="926" y="606" font-family="Arial, sans-serif" font-size="12" fill="#9ca3af">Trading Fees</text>
  <rect x="926" y="614" width="290" height="8" rx="4" fill="#1f2937"/>
  <rect x="926" y="614" width="210" height="8" rx="4" fill="#00d4ff" opacity="0.7"/>
  <text x="1222" y="621" font-family="Arial, sans-serif" font-size="12" fill="#00d4ff" text-anchor="end">$2,100</text>

  <text x="926" y="648" font-family="Arial, sans-serif" font-size="12" fill="#9ca3af">Agent Rewards</text>
  <rect x="926" y="656" width="290" height="8" rx="4" fill="#1f2937"/>
  <rect x="926" y="656" width="150" height="8" rx="4" fill="#9d4edd" opacity="0.7"/>
  <text x="1222" y="663" font-family="Arial, sans-serif" font-size="12" fill="#9d4edd" text-anchor="end">$1,500</text>

  <text x="926" y="690" font-family="Arial, sans-serif" font-size="12" fill="#9ca3af">Referrals</text>
  <rect x="926" y="698" width="290" height="8" rx="4" fill="#1f2937"/>
  <rect x="926" y="698" width="63" height="8" rx="4" fill="#06ffa5" opacity="0.7"/>
  <text x="1222" y="705" font-family="Arial, sans-serif" font-size="12" fill="#06ffa5" text-anchor="end">$631</text>

  <line x1="926" y1="728" x2="1230" y2="728" stroke="#1f2937" stroke-width="1"/>
  <text x="926" y="752" font-family="Arial, sans-serif" font-size="15" font-weight="bold" fill="white">Total</text>
  <text x="1222" y="752" font-family="Arial, sans-serif" font-size="15" font-weight="bold" fill="#06ffa5" text-anchor="end">$4,231</text>
</svg>
